<?xml version="1.0" encoding="UTF-8" standalone="no"?>
<!DOCTYPE svg PUBLIC "-//W3C//DTD SVG 1.1//EN" "http://www.w3.org/Graphics/SVG/1.1/DTD/svg11.dtd">
<svg version="1.1" xmlns="http://www.w3.org/2000/svg" xmlns:xlink="http://www.w3.org/1999/xlink" preserveAspectRatio="xMidYMid meet" viewBox="0 0 640 640" width="640" height="640"><defs><path d="M357.99 580.14C368.39 580.14 378.56 579.13 388.41 577.2C385.34 572.21 360.79 532.23 357.72 527.24C355.92 527.22 354.1 527.17 352.28 527.07C295.95 524.03 252.63 476.33 255.71 420.76C258.69 367.24 303.51 325.32 357.76 325.32C359.65 325.32 361.56 325.37 363.47 325.48C387.82 326.79 410.38 336.44 427.91 352.76C431.58 348.9 460.96 318.02 464.64 314.16C437.91 289.29 403.52 274.65 366.41 272.64C280.02 268.04 206.85 333.46 202.16 417.86C197.46 502.56 263.48 575.27 349.34 579.91C352.24 580.06 355.12 580.14 357.99 580.14Z" id="a5gIi3Iqf"></path><path d="M232.44 558.24C194.3 522.89 171.58 471.83 174.67 416.37C180 320.41 260.4 245.24 357.69 245.24C361.08 245.24 364.53 245.34 367.92 245.52C412.78 247.94 453 266.19 483.42 294.42C487.09 290.56 516.44 259.71 520.11 255.86C480.81 219.38 428.82 195.82 370.86 192.68C366.48 192.44 362.05 192.32 357.69 192.32C231.93 192.32 128.01 289.47 121.12 413.47C116.65 493.94 154.16 567.29 214.78 612.72C218.31 601.82 230.67 563.68 232.44 558.24Z" id="afN164IdV"></path><path d="M70.99 235.81C133.23 144.66 238.67 85.08 357.56 85.08C363.94 85.08 370.42 85.26 376.81 85.6C461.33 90.17 537.13 124.53 594.44 177.72C598.12 173.86 627.49 142.99 631.16 139.13C564.97 77.7 477.37 38.04 379.75 32.76C372.37 32.36 364.91 32.16 357.56 32.16C212.14 32.16 84.08 109.27 14.3 225.17C25.64 227.3 59.65 233.69 70.99 235.81Z" id="aCNC6d4aj"></path><path d="M94.71 453.67C93.26 440.03 92.84 426.11 93.63 411.98C101.32 273.58 217.28 165.16 357.62 165.16C362.5 165.16 367.46 165.29 372.36 165.56C435.31 168.96 493.66 193.81 539.02 235.98C542.69 232.12 572.04 201.26 575.71 197.4C521.17 146.69 451 116.82 375.29 112.72C369.42 112.41 363.47 112.24 357.62 112.24C188.81 112.24 49.33 242.63 40.08 409.08C38.69 434.23 40.43 458.82 44.81 482.57C54.79 476.79 89.72 456.56 94.71 453.67Z" id="a53Q2Vnhsf"></path><path d="M354.97 478.62C325.67 477.03 303.22 452.31 304.82 423.4C306.43 394.5 331.49 372.35 360.78 373.94C390.08 375.52 412.53 400.24 410.93 429.14C409.32 458.06 384.26 480.2 354.97 478.62Z" id="cWpZynUVA"></path></defs><g><g><g><use xlink:href="#a5gIi3Iqf" opacity="1" fill="#0083c9" fill-opacity="1"></use><g><use xlink:href="#a5gIi3Iqf" opacity="1" fill-opacity="0" stroke="#000000" stroke-width="1" stroke-opacity="0"></use></g></g><g><use xlink:href="#afN164IdV" opacity="1" fill="#0083c9" fill-opacity="1"></use><g><use xlink:href="#afN164IdV" opacity="1" fill-opacity="0" stroke="#000000" stroke-width="1" stroke-opacity="0"></use></g></g><g><use xlink:href="#aCNC6d4aj" opacity="1" fill="#0083c9" fill-opacity="1"></use><g><use xlink:href="#aCNC6d4aj" opacity="1" fill-opacity="0" stroke="#000000" stroke-width="1" stroke-opacity="0"></use></g></g><g><use xlink:href="#a53Q2Vnhsf" opacity="1" fill="#0083c9" fill-opacity="1"></use><g><use xlink:href="#a53Q2Vnhsf" opacity="1" fill-opacity="0" stroke="#000000" stroke-width="1" stroke-opacity="0"></use></g></g><g><use xlink:href="#cWpZynUVA" opacity="1" fill="#0083c9" fill-opacity="1"></use><g><use xlink:href="#cWpZynUVA" opacity="1" fill-opacity="0" stroke="#000000" stroke-width="1" stroke-opacity="0"></use></g></g></g></g></svg>